# xmcd
#
# Track frame offsets:
#	182
#	8697
#	24172
#	37705
#	55607
#	65660
#	82805
#	83540
#	98167
#	115842
#	136507
#	160487
#
# Disc length: 2214 seconds
#
# Revision: 1
# Processed by: cddbd v1.5.2PL0 Copyright (c) Steve Scherf et al.
# Submitted via: AudioConverter v8.05 Copyright (c) D.R. Software
#
DISCID=7708a40c
DTITLE=Jools Holland - The Full Complement
DYEAR=1991
DGENRE=Blues
TTITLE0=Lost Chord
TTITLE1=One More Time
TTITLE2=Together Again
TTITLE3=No-one's To Blame
TTITLE4=Baby Let Me Hold Your Hand
TTITLE5=Lady Don't Fall Backwards
TTITLE6=Cacophany
TTITLE7=Movin' On
TTITLE8=Me-U =Loneliness
TTITLE9=Blue Guitar
TTITLE10=Shake Rattle And Roll
TTITLE11=D'Arcy's Farewell
EXTD=
EXTT0=
EXTT1=
EXTT2=
EXTT3=
EXTT4=
EXTT5=
EXTT6=
EXTT7=
EXTT8=
EXTT9=
EXTT10=
EXTT11=
PLAYORDER=
